:SAMPLES-PER-SECOND 30
:FULLY-SPECIFIED
:DEGREES
689
root  71.6168 40.1419 -1.33982 -59.8609 -86.6446 59.0347
RightUpLeg  3.37426 -12.6845 -9.25884
RightLeg  9.50812 -8.69306 3.22649
RightFoot  -9.47601 -0.102042 2.282
RightToes  0.00048216 0.542163 -0.142577
Spine  3.84475 0.389469 1.55359
Spine1  8.35816 1.24123 -2.65848
HEad  -5.99816 0.425638 2.6958
LeftShoulder1  7.86629 -11.7098 -45.0535
LeftArm  -4.14421 17.8696 -28.8517
LeftForeArm  32.5817 -23.1361 -3.32451
LeftHand  -0.25398 0.0180481 5.50724
RightShoulder  4.93222 8.35758 35.6093
RightArm  8.08646 -4.63025 38.812
RightForeArm  6.1363 21.7411 4.72881
RightHand  -1.01994 3.13376 -14.1201
LeftUpLeg  -0.150691 6.71683 -2.94943
LeftLeg  7.53499 31.5263 -2.39293
LeftFoot  -10.5414 0.052142 1.60536
LeftToes  1.06247e-005 4.65855e-005 -8.18501e-006
690
root  71.4571 40.0236 -1.02913 -46.9749 -85.8949 45.8584
RightUpLeg  2.80415 -15.9011 -9.79962
RightLeg  12.3999 -6.83468 1.68715
RightFoot  -10.4959 -0.0898819 2.61311
RightToes  0.00048216 0.542163 -0.142577
Spine  4.24408 0.288279 0.997105
Spine1  8.15583 1.03906 -2.44636
HEad  -5.57512 -0.605002 3.11555
LeftShoulder1  8.06148 -11.9769 -45.3893
LeftArm  -4.06289 18.2868 -28.4844
LeftForeArm  32.4887 -22.937 -3.31885
LeftHand  -0.25398 0.0180481 5.50724
RightShoulder  4.86602 8.25391 35.4168
RightArm  7.34324 -5.34071 38.3964
RightForeArm  5.15649 22.508 4.70804
RightHand  -1.12055 3.47527 -14.9009
LeftUpLeg  -0.0417785 6.96134 -3.395
LeftLeg  8.57567 30.216 -1.92858
LeftFoot  -10.5865 0.0537855 1.488
LeftToes  1.06247e-005 4.65855e-005 -8.18501e-006
691
root  71.3151 39.8681 -0.687052 -40.8833 -84.9765 39.3343
RightUpLeg  1.32047 -19.4364 -10.3138
RightLeg  16.9616 -3.97446 -0.608483
RightFoot  -11.3411 -0.0749831 4.2247
RightToes  0.00048216 0.542163 -0.142577
Spine  5.09184 0.211341 0.211811
Spine1  7.92457 0.829541 -2.21416
HEad  -5.72905 -1.49944 3.22258
LeftShoulder1  8.18822 -12.1444 -45.6189
LeftArm  -3.93423 18.3553 -28.313
LeftForeArm  32.2987 -22.4181 -3.32091
LeftHand  -0.25398 0.0180481 5.50724
RightShoulder  4.80731 8.20075 35.1087
RightArm  6.40577 -6.13411 38.0888
RightForeArm  4.13534 23.0255 4.76616
RightHand  -1.28874 4.15665 -15.9138
LeftUpLeg  -0.030645 7.06679 -4.24706
LeftLeg  10.1018 28.7955 -1.08788
LeftFoot  -11.3466 0.0685347 1.71502
LeftToes  1.06247e-005 4.65855e-005 -8.18501e-006
692
root  71.1962 39.6914 -0.325967 -40.2475 -84.4151 38.1048
RightUpLeg  -1.40758 -17.1885 -10.5866
RightLeg  23.5015 -5.21186 -2.84335
RightFoot  -10.8222 -0.12004 8.05341
RightToes  0.00048216 0.542163 -0.142577
Spine  6.38633 0.259971 -0.506973
Spine1  7.83986 0.773255 -2.17959
HEad  -6.3211 -1.99637 3.20949
LeftShoulder1  8.14446 -12.0663 -45.6014
LeftArm  -3.79919 17.9964 -28.4151
LeftForeArm  32.1948 -21.8304 -3.35188
LeftHand  -0.25398 0.0180481 5.50724
RightShoulder  4.75712 8.14724 34.8708
RightArm  5.39874 -6.66668 37.9267
RightForeArm  3.59211 23.0589 4.79719
RightHand  -1.43458 4.79426 -16.6078
LeftUpLeg  0.141453 7.30439 -5.10599
LeftLeg  11.7473 28.2277 -0.226585
LeftFoot  -12.524 0.0973288 2.13325
LeftToes  1.06247e-005 4.65855e-005 -8.18501e-006
693
root  71.0835 39.5348 0.0405828 -42.6768 -84.2913 39.7829
RightUpLeg  -5.34032 -12.6092 -10.8338
RightLeg  32.1648 -8.20954 -5.79804
RightFoot  -7.71525 -0.383995 10.6025
RightToes  0.00048216 0.542163 -0.142577
Spine  8.04281 0.455137 -1.07074
Spine1  7.66799 0.893956 -2.27928
HEad  -6.92908 -2.35834 3.13407
LeftShoulder1  8.13189 -12.0483 -45.5829
LeftArm  -3.65672 17.6995 -28.4269
LeftForeArm  32.2539 -21.4035 -3.39224
LeftHand  -0.25398 0.0180481 5.50724
RightShoulder  4.78677 8.20676 34.9151
RightArm  4.28712 -7.16559 37.7133
RightForeArm  3.46118 22.5208 4.78655
RightHand  -1.47814 4.95585 -16.8387
LeftUpLeg  0.813405 7.46801 -5.74026
LeftLeg  12.7466 28.4385 0.118457
LeftFoot  -13.5438 0.130293 2.55056
LeftToes  1.06247e-005 4.65855e-005 -8.18501e-006
694
root  70.9384 39.4198 0.401361 -45.2637 -84.2317 41.6202
RightUpLeg  -9.97162 -9.00711 -10.8758
RightLeg  41.2463 -9.99471 -9.51564
RightFoot  -2.45576 -0.644371 8.34604
RightToes  0.00048216 0.542163 -0.142577
Spine  9.68547 0.63522 -1.64932
Spine1  7.27237 0.971713 -2.22938
HEad  -7.22954 -2.78608 2.82969
LeftShoulder1  8.29451 -12.304 -45.7487
LeftArm  -3.44608 17.7764 -28.0868
LeftForeArm  32.3098 -20.9909 -3.44854
LeftHand  -0.25398 0.0180481 5.50724
RightShoulder  4.92335 8.45978 35.188
RightArm  3.07971 -7.99632 37.4438
RightForeArm  3.48468 21.5622 4.83684
RightHand  -1.45222 4.73609 -16.8929
LeftUpLeg  1.87397 7.32037 -6.25619
LeftLeg  12.9572 28.8246 -0.0671164
LeftFoot  -14.3143 0.160594 2.87668
LeftToes  1.06247e-005 4.65855e-005 -8.18501e-006
695
root  70.7192 39.341 0.751462 -44.1135 -83.921 39.9428
RightUpLeg  -14.4398 -6.39337 -10.5637
RightLeg  48.2518 -9.26237 -11.1993
RightFoot  2.44502 -0.427754 3.60804
RightToes  0.00048216 0.542163 -0.142577
Spine  10.7861 0.603767 -2.25684
Spine1  7.07638 0.777546 -1.92957
HEad  -7.2222 -3.18745 2.34507
LeftShoulder1  8.50323 -12.6096 -46.0211
LeftArm  -3.14102 17.844 -27.5383
LeftForeArm  32.3813 -20.3523 -3.56416
LeftHand  -0.25398 0.0180481 5.50724
RightShoulder  5.03981 8.66313 35.4534
RightArm  2.0494 -9.11696 37.3636
RightForeArm  3.65919 20.5615 4.97463
RightHand  -1.43263 4.54954 -16.969
LeftUpLeg  2.90286 6.95025 -6.73653
LeftLeg  12.8937 28.9515 -0.283194
LeftFoot  -15.0073 0.189643 3.10883
LeftToes  1.06247e-005 4.65855e-005 -8.18501e-006
696
root  70.4029 39.2953 1.0971 -37.7531 -83.4388 33.3273
RightUpLeg  -17.9232 -4.53262 -9.67694
RightLeg  51.5342 -6.45146 -9.00277
RightFoot  4.44069 -0.179248 1.4697
RightToes  0.00048216 0.542163 -0.142577
Spine  11.2179 0.332413 -2.53544
Spine1  7.3585 0.345242 -1.54347
HEad  -7.06256 -3.44024 1.92339
LeftShoulder1  8.59178 -12.7028 -46.2399
LeftArm  -2.88554 17.5951 -27.089
LeftForeArm  32.7631 -19.6454 -3.71436
LeftHand  -0.25398 0.0180481 5.50724
RightShoulder  5.03492 8.59534 35.6411
RightArm  1.57015 -10.4223 37.5011
RightForeArm  4.1349 19.8628 5.10297
RightHand  -1.41099 4.44584 -16.8889
LeftUpLeg  3.78924 6.47858 -6.95243
LeftLeg  12.8148 28.8373 -0.297986
LeftFoot  -15.6519 0.216544 3.25566
LeftToes  1.06247e-005 4.65855e-005 -8.18501e-006
697
root  69.9934 39.2611 1.43998 -29.1427 -82.9076 24.6039
RightUpLeg  -20.2762 -3.15573 -8.20114
RightLeg  51.2964 -3.93271 -5.6437
RightFoot  3.78072 -0.352761 2.87557
RightToes  0.00048216 0.542163 -0.142577
Spine  11.383 -0.0454625 -2.51601
Spine1  7.6466 -0.182799 -1.1613
HEad  -6.71824 -3.44871 1.69058
LeftShoulder1  8.55758 -12.6147 -46.3089
LeftArm  -2.8859 17.4427 -26.9376
LeftForeArm  33.3817 -19.2835 -3.7839
LeftHand  -0.25398 0.0180481 5.50724
RightShoulder  5.01652 8.49074 35.8452
RightArm  1.73476 -12.1106 37.6058
RightForeArm  5.02575 19.4452 5.17865
RightHand  -1.30744 4.037 -16.326
LeftUpLeg  4.67958 5.95434 -6.79185
LeftLeg  12.7212 28.5532 -0.289183
LeftFoot  -16.3296 0.23989 3.25708
LeftToes  1.06247e-005 4.65855e-005 -8.18501e-006
698
root  69.5099 39.2249 1.78025 -21.2148 -82.2467 16.6055
RightUpLeg  -21.7451 -2.43462 -6.27753
RightLeg  48.2457 -3.72324 -4.76333
RightFoot  2.3466 -0.530987 4.53928
RightToes  0.00048216 0.542163 -0.142577
Spine  11.6054 -0.466773 -2.64552
Spine1  7.50366 -0.822831 -0.565917
HEad  -6.19804 -3.30598 1.3978
LeftShoulder1  8.46903 -12.4798 -46.2132
LeftArm  -3.0951 17.7996 -27.0816
LeftForeArm  33.6155 -19.4339 -3.72446
LeftHand  -0.25398 0.0180481 5.50724
RightShoulder  5.11966 8.68211 36.0308
RightArm  2.31507 -14.245 37.601
RightForeArm  6.40144 19.0314 5.25667
RightHand  -1.12238 3.28035 -15.2422
LeftUpLeg  5.6895 5.53558 -6.41771
LeftLeg  12.52 27.9004 -0.455996
LeftFoot  -17.0775 0.26068 3.15412
LeftToes  1.06247e-005 4.65855e-005 -8.18501e-006
699
root  68.978 39.2143 2.12972 -14.2744 -81.3703 9.66783
RightUpLeg  -22.5475 -2.57887 -3.96221
RightLeg  42.8886 -5.71777 -5.92278
RightFoot  1.11728 -0.444939 4.12988
RightToes  0.00048216 0.542163 -0.142577
Spine  11.7389 -0.936139 -2.8702
Spine1  7.35726 -1.5638 0.358047
HEad  -5.7741 -3.27847 0.98973
LeftShoulder1  8.37257 -12.3508 -46.0532
LeftArm  -3.17944 18.2839 -27.3185
LeftForeArm  33.1836 -20.0021 -3.60147
LeftHand  -0.25398 0.0180481 5.50724
RightShoulder  5.26714 9.01446 36.0926
RightArm  2.96447 -16.3764 37.641
RightForeArm  8.17123 18.5053 5.37429
RightHand  -0.974406 2.7609 -14.0964
LeftUpLeg  6.88847 5.30147 -5.9385
LeftLeg  11.8921 26.904 -0.852421
LeftFoot  -17.648 0.276635 3.09512
LeftToes  1.06247e-005 4.65855e-005 -8.18501e-006
700
root  68.4005 39.1832 2.49537 -9.14346 -80.4001 4.67345
RightUpLeg  -22.8299 -3.49061 -1.57871
RightLeg  35.6828 -7.5257 -6.04511
RightFoot  -0.0481739 -0.361668 3.67086
RightToes  0.00048216 0.542163 -0.142577
Spine  11.5328 -1.30376 -2.98287
Spine1  7.76382 -2.14721 1.16472
HEad  -5.78306 -3.57295 0.741814
LeftShoulder1  8.32298 -12.2748 -45.9991
LeftArm  -2.91144 18.29 -27.3946
LeftForeArm  32.6294 -20.9485 -3.45639
LeftHand  -0.25398 0.0180481 5.50724
RightShoulder  5.29883 9.08905 36.0949
RightArm  3.28597 -18.0495 37.7713
RightForeArm  9.97258 17.9374 5.51426
RightHand  -0.920007 2.70397 -13.4149
LeftUpLeg  8.03914 5.14772 -5.58771
LeftLeg  11.2965 25.9919 -1.13632
LeftFoot  -18.2409 0.282749 2.87695
LeftToes  1.06247e-005 4.65855e-005 -8.18501e-006
701
root  67.7523 39.0662 2.88253 -6.8611 -79.6187 2.64006
RightUpLeg  -22.7969 -5.37517 0.677933
RightLeg  27.5296 -6.85586 -4.14358
RightFoot  -0.87809 -0.477307 5.13876
RightToes  0.00048216 0.542163 -0.142577
Spine  11.1443 -1.41925 -3.10248
Spine1  8.39428 -2.36706 1.54493
HEad  -6.13628 -4.13374 0.90152
LeftShoulder1  8.3524 -12.2965 -46.1014
LeftArm  -2.53451 17.8515 -27.2493
LeftForeArm  32.5696 -22.1782 -3.3345
LeftHand  -0.25398 0.0180481 5.50724
RightShoulder  5.21797 8.88081 36.1481
RightArm  2.86125 -19.3442 37.922
RightForeArm  11.661 17.2394 5.68217
RightHand  -0.86442 2.43932 -13.0225
LeftUpLeg  9.06356 4.96089 -5.64285
LeftLeg  11.0954 25.4231 -1.22998
LeftFoot  -19.2317 0.276545 2.34039
LeftToes  1.06247e-005 4.65855e-005 -8.18501e-006
